<svg xmlns="http://www.w3.org/2000/svg" width="24" height="24" fill="none" viewBox="0 0 24 24">
  <path stroke="#4A43EC" stroke-linecap="round" stroke-linejoin="round" stroke-width="1.5" d="m20.807 7.624-.623-1.08a1.913 1.913 0 0 0-2.608-.705v0a1.904 1.904 0 0 1-2.61-.678 1.832 1.832 0 0 1-.255-.915v0a1.913 1.913 0 0 0-1.914-1.968h-1.254A1.904 1.904 0 0 0 9.64 4.191v0a1.913 1.913 0 0 1-1.913 1.886 1.83 1.83 0 0 1-.916-.257v0a1.913 1.913 0 0 0-2.608.705l-.669 1.099a1.913 1.913 0 0 0 .696 2.608v0a1.913 1.913 0 0 1 0 3.314v0a1.904 1.904 0 0 0-.696 2.6v0l.632 1.089a1.913 1.913 0 0 0 2.609.741v0a1.895 1.895 0 0 1 2.6.696c.164.277.252.593.255.915v0c0 1.056.857 1.913 1.913 1.913h1.255a1.91 1.91 0 0 0 1.912-1.904v0a1.904 1.904 0 0 1 1.914-1.913c.321.009.636.097.915.256v0a1.913 1.913 0 0 0 2.609-.695v0l.659-1.099a1.904 1.904 0 0 0-.696-2.608v0a1.904 1.904 0 0 1-.696-2.609c.166-.29.406-.53.696-.696v0a1.913 1.913 0 0 0 .696-2.6v0-.008Z" clip-rule="evenodd"/>
  <circle cx="12.175" cy="11.889" r="2.636" stroke="#4A43EC" stroke-linecap="round" stroke-linejoin="round" stroke-width="1.5"/>
</svg>
